<?xml version="1.0" encoding="utf-8"?>
<!-- Generator: Adobe Illustrator 25.3.1, SVG Export Plug-In . SVG Version: 6.00 Build 0)  -->
<svg version="1.1" id="Layer_1" xmlns="http://www.w3.org/2000/svg" xmlns:xlink="http://www.w3.org/1999/xlink" x="0px" y="0px"
	 viewBox="0 0 167.2 167.2" style="enable-background:new 0 0 167.2 167.2;" xml:space="preserve">
<style type="text/css">
	.st0{fill:#FFFFFF;}
	.st1{fill:#E4007F;}
	.st2{fill:#FFF100;}
	.st3{fill:#00A1E9;}
</style>
<path class="st0" d="M161,90.5c-1.4-1.1-8.3-6.1-14-11.1c-5.5-4.8-16.4-14.3-22.6-21.8c-0.7-6.4-2.8-26.1-4-37.7
	C119,6.5,118.3,0.4,117.5,0s-8.6,5.9-16.4,12.5c-7.3,6.1-22.5,22-25.1,24.8h-0.7c-2.6,0-5.1-0.3-7.6-1.1c-3.9-1.3-7.6-3.2-10.9-5.7
	h-0.3c-0.2,0-0.2,0.2-0.2,0.4c0.1,1.8-0.2,3.6-0.7,5.4c-0.8-0.5-1.5-1.2-1.7-2.1l1-1.1c0.7-0.7,0.9-2.1,0.2-3.8
	c-0.8-2.3-2.9-3.8-5.4-3.9c-1,0-2,0.2-2.9,0.7h-0.2c-0.2,0.2-4.7,5.7-5.5,8.2c-0.3,1.6,0,3.3,0.9,4.6c1,1.8,3.5,5,9.3,7.3
	c-2.7,0.8-5.6,1.2-8.5,1.3c-0.4-0.2-0.9-0.4-1.2-0.7c-0.2-0.2-0.2-0.2-0.3,0c-0.2,0-0.2,0.2-0.2,0.4v0.5c-1,0-2.1,0-3.1-0.2
	c0.5-1.8,1.2-3.6,1.6-4.5c0.5-1.2,0.4-2.5-0.3-3.6s-2.4-2.5-6.4-2.3c-6,0.2-6.9,4.3-7.3,6.1v0.2c-0.7,2.9-1,5.9-1,8.9
	c0,0.6,0.1,1.1,0.3,1.6c-0.7-0.1-1.5-0.2-2.2-0.2c-1.2-0.1-2.5,0.1-3.6,0.5c-2.8,1.4-5.9,3.6-5.4,9.5c0,0.5,0,1,0.2,1.4
	C14.1,71,14.6,78.7,21,81c2.5,0.8,5.1,1.2,7.8,1.1c1.5,0,3,0,4.5-0.2c-3.8,2.3-10.9,6.4-14.3,8.2c-0.4-0.7-0.9-1.4-1.4-2
	c-1.2-1.3-3-2.1-4.8-2c-2.1-0.1-4.1,0.8-5.5,2.3c-2.9,3.6-3,8.6-0.5,12.3c0.2,0.4,0.5,0.7,0.7,1.1c2.8,3.9,7.1,9.8,11.6,10.4h0.5
	c2.2,0,4.7-1.1,7.3-2.7c-2.6,5.9-6.7,16.8-5.4,26.5c0.9,6.3,6.9,7.2,10.5,7.7c0.5,0,1,0.2,1.4,0.2c1.4,0.3,2.8,0.4,4.1,0.4l0,0
	c2.1,0.1,4.1-0.4,5.9-1.4c0.2,2.1,0.3,4.5,0.7,6.6c1.4,8,4.1,11.8,8.6,11.8h0.9c5.7-0.5,15.9-5,18.1-7.7c1-1.4,1.6-3,1.7-4.6
	c0.5,2.6,1.3,5.2,2.4,7.7c2.8,6.4,5.7,10.7,10.5,10.7c0.7,0,1.4,0,2.1-0.2c4.5-0.7,11.8-2.7,15-4.8c2,1.5,4.3,2.7,6.7,3.4
	c1.4,0.5,2.9,0.7,4.3,0.7l0,0c3.3-0.1,6.4-1.3,9-3.2c3.5-2.1,8.1-6.3,8.8-10.2c0.8,0,1.7-0.2,2.4-0.5c4-2.8,7.7-6.1,10.9-9.8
	c1.1-1.5,1.2-3.4,0.3-5c-0.9-2-2.6-3.4-4.1-3.4c-0.6,0-1.1,0.2-1.6,0.5c-1,0.9-2.9,2.7-4.8,4.3h-0.2c-2.5,0-5-1.1-6.7-2.9
	c1.4-0.4,2.7-0.7,4.1-0.9c3.3-0.4,4.8-0.5,4.8-0.5c0.2,0,0.2,0,0.2-0.2v-0.4c-2-2.9-3.6-6.1-4.7-9.5c2.9-1.4,7.1-2.7,7.3-2.9
	c0.1,0,0.2-0.1,0.2-0.2l0,0v-0.4c-0.7-0.9-1.4-1.8-2.1-2.7c2.3,0.1,4.7,0.4,6.9,1.1c2.2,0.9,5.9,0.9,6.7,0.2
	c0.9-0.9,2.4-4.6,3.1-4.5c0.5,0.2,0.5,0.7,1.4,0.7c0.7,0,1.2-0.4,1-1.4c-0.2-0.9-0.3-4.3,0.9-6.3c1-2.1,1.7-7,2.1-10.4
	c0.2-1.4,0.5-2.7,1-3.9C162.4,92.9,162.1,91.3,161,90.5z"/>
<g id="Group_236" transform="translate(0.035 -0.008)">
	<path id="Path_402" class="st1" d="M59.6,44.4c0,0-9.7,4-12.3,4.7c0,0,3.1,3.3,12.4,0.5c9.2-2.6,8.5-3.6,8.5-3.6L59.6,44.4z"/>
	<path id="Path_403" class="st2" d="M56.4,37.7c0,0-3.1-1.7-3.6-3.6l1.6-3.1c-0.4-1.4-1.4-2.5-2.8-3.1c-1.4-0.8-3.1-0.9-4.5-0.2
		l-4.8,6.9c0,0-0.5,7.6,10.2,11.1l1.6,0.7l4.3-2.6L54,40.3L56.4,37.7z"/>
	<path id="Path_404" class="st1" d="M42.6,49.7l-6.2-1.2l1.6-7.8c-1.8-1.9-4.4-2.6-6.9-1.9c-2.5,0.4-4.4,2.5-4.7,5
		c0,0-3.6,10.9,3.5,12.8c7.1,2.1,10.5,1,10.5,1S42.8,53.1,42.6,49.7z"/>
	<path id="Path_405" class="st3" d="M29.5,57.8c0,0-4.5-4-9.5-2.2c-5,1.9-5.7,6-5,10.4c0.7,4.5,1,12.1,9.3,13.3
		c8.1,1.2,20.4-0.9,20.4-0.9l4.8-6.4c0,0-6.4,2.2-9,1.7L40,64.9l-10.2,0.9L29.5,57.8z"/>
	<path id="Path_406" class="st2" d="M37.1,81.2L18.4,92.1l-2.8-3.8c0,0-4.7-1.9-7.6,1.9c-2,2.3-2.3,5.7-0.7,8.3
		c0.5,1.2,6.7,10.5,11.8,10.9s15.4-6.9,18.1-10.7c2.8-3.8,3.3-5.9,3.3-5.9l-9-3.5l11.8-9.2L37.1,81.2z"/>
	<path id="Path_407" class="st1" d="M30.2,106.3c0,0-12.1,26.3-4.3,33.7c4,3.8,17.5,4.5,19,0.3c1.6-4,0-8.5-2.1-9.5l-2.4-0.9
		l0.7-10.9l-8.3-3.3l3.5-13.3L30.2,106.3z"/>
	<path id="Path_408" class="st3" d="M47.5,121.2c0,0-3.6,20.2-0.5,29.6c3.1,9.3,6.6,9.2,10.4,8.1c3.8-0.9,14.5-4,14.9-8.5
		S67,143,67,143l-1.6,0.3l0.5-16.9c0,0-2.6-13.3-1.7-20.2c1-6.9,5-20,5-20s-11.1,13.3-15.2,22C49.9,116.5,47.5,121.2,47.5,121.2z"/>
	<path id="Path_409" class="st2" d="M73.9,132.4c0,0,1.4,29.7,11.8,32.1c10.2,2.4,19.4-5.4,19.4-5.4s-0.9-8.5-3.5-8.8
		c-1.5-0.2-3,0-4.3,0.7c0,0-5.5-14.2-6-20.7c-0.5-6.6-0.7-20.2-0.7-20.2l-10.4,2.6l3.1,18.3L73.9,132.4z"/>
	<path id="Path_410" class="st1" d="M104,160.4c0,0,7.1,5.9,15.2,2.9c8.1-2.9,13.1-6.6,12.6-10c-0.5-3.5-5.9-5.2-5.9-5.2l-7.1,4.3
		c-2-2.7-3.9-5.6-5.5-8.6c-0.9-2.1-1.6-4.3-2.1-6.6l-2.6,0.9l-1.4-11.9l-7.6,2.2c0,0-5.5-10.2-6-18.3l-4.3,0.5
		c0,0,1.9,31.6,7.8,39.9c0,0,6.2-0.3,7.1,4C105.2,158.9,104,160.4,104,160.4z"/>
	<path id="Path_411" class="st3" d="M111.6,137.4c0,0,6.9,9.3,12.1,11.2c0,0,5-1.4,6.6,1.2c1.6,2.8,1.6,2.1,1.6,2.1
		c2.9-0.9,5.5-2.5,7.8-4.5c3.1-2.9,7.6-5.5,5.4-8.5l-2.2-2.8l-6,4.7c0,0-7.9,0.2-9.3-4.5l-2.4,0.2l-2.2-3.1l-11.4,3.8"/>
	<path id="Path_412" class="st2" d="M99.5,15.4c-2.8,2.1-5.5,4.3-8,6.7c-2.4,2.4-4.4,5.1-6.2,8l10.9-6L99.5,15.4z"/>
	<path id="Path_413" class="st1" d="M110.9,9.9c0,0-8.1,5.2-11.1,8.8c-1.4,1.6-2.7,3.4-3.6,5.4c0,0-1.4,14.7-0.3,19l14.5-15.9
		L110.9,9.9z"/>
	<path id="Path_414" class="st3" d="M118.1,12.8l2.6,19.7c0,0-6.6,15.6-6.7,16.6c0,0-1.7-8.8-2.6-14.3c-0.9-5.4-1.4-7.6-1.4-7.6
		c1.3-2.1,2.4-4.3,3.5-6.6C114.9,17.9,116.4,15.3,118.1,12.8z"/>
	<g id="Group_235">
		<path id="Path_415" d="M126.4,68.3c-1.4-1.3-2.9-2.5-4.5-3.5c-1.5-1.2-3.4-2-5.4-2.1c-1.9,0.2-1.9,0.3-2.2,1
			c-0.3,0.5-0.7,2.2,0,2.2c0.6,0.1,1.3,0.1,1.9,0c0,0-0.3,4.7,1.2,5.9c1.9,1.1,4.1,1.2,6,0.2c0.7-0.5,1.7-1.4,2.2-0.9
			c0.5,0.3,0.9,0.9,1.6,0.7s1.4-0.5,1.2-1C127.9,69.9,127.2,69.1,126.4,68.3z M122.3,70.5c-1,0.7-2.2,0.7-3.3,0.2
			c-1.4-0.7-1.2-4.1-1-4.7c0.2-0.5,0.9,0,1,0.3c0.3,0.3,0,0.3,0,1c0,0.5,0.2,1.9,1.2,2.1c0.9,0.1,1.7-0.3,2.2-1
			c0.2-0.3,0.9,0,0.9,0.5C123.7,69.3,123.2,70,122.3,70.5L122.3,70.5z"/>
		<path id="Path_416" d="M161,90.5c-1.4-1.1-8.3-6.1-14-11.1c-5.5-4.8-16.4-14.3-22.6-21.8c-0.7-6.4-2.8-26.1-4-37.7
			C119,6.5,118.3,0.4,117.5,0s-8.6,5.9-16.4,12.5c-7.3,6.1-22.5,22-25.1,24.8h-0.7c-2.6,0-5.1-0.3-7.6-1.1
			c-3.9-1.3-7.6-3.2-10.9-5.7h-0.3c-0.2,0-0.2,0.2-0.2,0.4c0.1,1.8-0.2,3.6-0.7,5.4c-0.8-0.5-1.5-1.2-1.7-2.1l1-1.1
			c0.7-0.7,0.9-2.1,0.2-3.8c-0.8-2.3-2.9-3.8-5.4-3.9c-1,0-2,0.2-2.9,0.7h-0.2c-0.2,0.2-4.7,5.7-5.5,8.2c-0.3,1.6,0,3.3,0.9,4.6
			c1,1.8,3.5,5,9.3,7.3c-2.7,0.8-5.6,1.2-8.5,1.3c-0.4-0.2-0.9-0.4-1.2-0.7c-0.2-0.2-0.2-0.2-0.3,0c-0.2,0-0.2,0.2-0.2,0.4v0.5
			c-1,0-2.1,0-3.1-0.2c0.5-1.8,1.2-3.6,1.6-4.5c0.5-1.2,0.4-2.5-0.3-3.6s-2.4-2.5-6.4-2.3c-6,0.2-6.9,4.3-7.3,6.1v0.2
			c-0.7,2.9-1,5.9-1,8.9c0,0.6,0.1,1.1,0.3,1.6c-0.7-0.1-1.5-0.2-2.2-0.2c-1.2-0.1-2.5,0.1-3.6,0.5c-2.8,1.4-5.9,3.6-5.4,9.5
			c0,0.5,0,1,0.2,1.4C14.1,71,14.6,78.7,21,81c2.5,0.8,5.1,1.2,7.8,1.1c1.5,0,3,0,4.5-0.2c-3.8,2.3-10.9,6.4-14.3,8.2
			c-0.4-0.7-0.9-1.4-1.4-2c-1.2-1.3-3-2.1-4.8-2c-2.1-0.1-4.1,0.8-5.5,2.3c-2.9,3.6-3,8.6-0.5,12.3c0.2,0.4,0.5,0.7,0.7,1.1
			c2.8,3.9,7.1,9.8,11.6,10.4h0.5c2.2,0,4.7-1.1,7.3-2.7c-2.6,5.9-6.7,16.8-5.4,26.5c0.9,6.3,6.9,7.2,10.5,7.7c0.5,0,1,0.2,1.4,0.2
			c1.4,0.3,2.8,0.4,4.1,0.4l0,0c2.1,0.1,4.1-0.4,5.9-1.4c0.2,2.1,0.3,4.5,0.7,6.6c1.4,8,4.1,11.8,8.6,11.8h0.9
			c5.7-0.5,15.9-5,18.1-7.7c1-1.4,1.6-3,1.7-4.6c0.5,2.6,1.3,5.2,2.4,7.7c2.8,6.4,5.7,10.7,10.5,10.7c0.7,0,1.4,0,2.1-0.2
			c4.5-0.7,11.8-2.7,15-4.8c2,1.5,4.3,2.7,6.7,3.4c1.4,0.5,2.9,0.7,4.3,0.7l0,0c3.3-0.1,6.4-1.3,9-3.2c3.5-2.1,8.1-6.3,8.8-10.2
			c0.8,0,1.7-0.2,2.4-0.5c4-2.8,7.7-6.1,10.9-9.8c1.1-1.5,1.2-3.4,0.3-5c-0.9-2-2.6-3.4-4.1-3.4c-0.6,0-1.1,0.2-1.6,0.5
			c-1,0.9-2.9,2.7-4.8,4.3h-0.2c-2.5,0-5-1.1-6.7-2.9c1.4-0.4,2.7-0.7,4.1-0.9c3.3-0.4,4.8-0.5,4.8-0.5c0.2,0,0.2,0,0.2-0.2v-0.4
			c-2-2.9-3.6-6.1-4.7-9.5c2.9-1.4,7.1-2.7,7.3-2.9c0.1,0,0.2-0.1,0.2-0.2l0,0v-0.4c-0.7-0.9-1.4-1.8-2.1-2.7
			c2.3,0.1,4.7,0.4,6.9,1.1c2.2,0.9,5.9,0.9,6.7,0.2c0.9-0.9,2.4-4.6,3.1-4.5c0.5,0.2,0.5,0.7,1.4,0.7c0.7,0,1.2-0.4,1-1.4
			c-0.2-0.9-0.3-4.3,0.9-6.3c1-2.1,1.7-7,2.1-10.4c0.2-1.4,0.5-2.7,1-3.9C162.4,92.9,162.1,91.3,161,90.5z M123,156.3
			c-0.2-1.4-0.9-2.7-2.1-3.6l5.7-3.4c0.9-0.2,1.9,0.1,2.4,0.9c0.7,0.7,0.7,2.1,0.5,3.6c-0.3,1.8-4.8,5-7.4,6.4
			C122.8,159,123.1,157.6,123,156.3z M106.2,154.3c-0.7-3.2-2.4-5.5-4.8-6.3c-0.2,0-0.3-0.2-0.7-0.2c-0.6,0-1.2,0.2-1.7,0.4
			c-5.9-9.1-7.3-31.3-7.6-37.9c0.5-0.1,1-0.2,1.6-0.2c1,13.8,6,19.5,6.4,19.7l0.2,0.2h0.2c2.1-1.3,4.3-2.3,6.6-3
			c0,3,0.2,8.6,1.9,12.2c0,0.2,0.2,0.2,0.3,0.2h0.2c0.6-0.3,1.1-0.5,1.7-0.7c1.4,5.9,5,11.3,6.6,13.4c-1.6,1.1-2.6,1.8-2.8,2
			c-0.2,0-0.2,0.2-0.2,0.4s0.2,0.2,0.3,0.2c1.1-0.1,2.2,0.1,3.3,0.5c1.8,0.8,2.5,2.8,1.8,4.6c-0.3,0.7-0.9,1.3-1.6,1.7
			c-0.6,0.2-1.2,0.4-1.9,0.4l0,0c-3.1,0-7.4-1.8-9.3-2.7C106.5,157.4,106.4,155.8,106.2,154.3L106.2,154.3z M84.1,155.7
			c0,0.2,0.2,0.2,0.3,0.2c1.3,0.1,2.6,0.6,3.6,1.4c0.5,0.5,0.8,1.2,0.7,2c-0.2,1.3-1.3,2.2-2.6,2.1c-1.2,0-2.4-0.7-3.6-2.3
			c-3.1-3.9-6.6-15.6-6.9-25.7c0.2,0,0.5-0.2,0.7-0.2c2.9-0.6,5.8-1,8.8-1.1h0.7c0.2,0,0.3-0.2,0.3-0.4v-0.2
			c-2.1-6.2-3.4-12.5-4.1-18.9c1.1-0.4,2.3-0.8,3.5-1.1c1.2-0.4,2.4-0.5,3.6-0.9c-0.5,22.7,4.3,35.6,5.9,39.2
			c-4.7,2.1-10,5.2-10.4,5.4C84.1,155.5,84.1,155.5,84.1,155.7L84.1,155.7z M116.1,143.7c1.5,1.9,3.5,3.4,5.7,4.5
			c-0.4,0.2-0.7,0.4-1,0.7C118.9,147.5,117.3,145.7,116.1,143.7L116.1,143.7z M92.9,157.7c-0.1-1.1-0.7-2.2-1.6-2.9
			c2.9-1.4,7.1-3.2,7.9-3.2c1,0,2.1,0.9,2.8,2.5c0.5,1.4,0.9,3.4-0.3,4.6c-1.7,1.8-7.6,3.2-9.9,3.6C92.8,161,93.1,159.3,92.9,157.7
			L92.9,157.7z M52.6,49.7c-1.2,0-2.2-0.2-3.3-0.2c3.4-1,6.6-2.4,9.7-4.1c2.2,0.8,4.6,1.3,6.9,1.4C61.8,48.8,57.2,49.8,52.6,49.7z
			 M52.5,30.9c-0.9,1.2-1.9,2.3-2.9,3.4c-0.7-2.5-2.2-2.9-3.5-2.9c-0.3,0-0.6,0-0.9,0.2c0.7-0.7,1.6-2,2.6-3.2
			c0.2-0.4,0.6-0.6,1-0.5c1.4,0.2,2.7,1.1,3.5,2.3c0.2,0.1,0.3,0.4,0.3,0.6C52.5,30.9,52.5,30.9,52.5,30.9z M45.7,34.3
			c0.9,0,2.1,1.1,2.4,4.3c0,0.2,0,0.2,0.2,0.2h0.3c0,0,1.6-1.4,3.3-3c0.6,1.1,1.6,1.9,2.8,2.3c-0.6,0.9-1.3,1.7-2.2,2.3l-0.2,0.2
			v0.2c1.1,1.2,2.3,2.2,3.6,3c0.3,0.2,0.5,0.4,0.9,0.5c-0.5,0.2-1.2,0.5-2.1,0.9c-2.2-0.7-8.3-3.2-10-7.2c-0.5-0.9-0.5-2.1,0-3
			C44.9,34.6,45.3,34.3,45.7,34.3L45.7,34.3z M34.5,103.2c-1.9,4.1-3.3,8.3-4.3,12.7v0.2l0.2,0.2c3.3,0.3,6.6,1,9.7,2.1
			c-0.6,3.1-1.1,6.2-1.4,9.3c-2.8-0.6-5.6-1-8.5-1.3c-0.5-0.1-1.1,0-1.6,0.2c-1,0.2-1.9,0.9-2.4,1.8v0.4c0,0.2,0.2,0.2,0.3,0.2h0.7
			c1,0,2,0.3,2.8,1.1c0.6,0.8,0.7,1.9,0.3,2.9c-0.3,1.8-1.2,3-2.2,3s-2.1-1.3-2.8-4.1c-0.9-5,2.9-19.7,6-26.1
			C32.5,104.9,33.5,104.1,34.5,103.2z M44.3,129.6l-0.7-0.7h-0.2c0,0-0.7-0.2-1.6-0.4c-0.1-3,0.1-6.1,0.5-9.1
			c1.2,0.5,2.2,1.1,3.3,1.4C45.4,122.8,44.7,126,44.3,129.6L44.3,129.6z M32.6,135.7c0.7-1.9,0.8-4.1,0.2-6.1
			c1.6,0.2,6.6,0.7,8.3,1.4c2.2,1,3.2,3.5,2.4,5.7c-0.7,3-2.2,4.3-5.2,4.1c-2.1,0-7.1-1.4-9.5-2.1C30.5,138.4,31.9,137.3,32.6,135.7
			L32.6,135.7z M48.5,122.3c0.3,0.2,0.6,0.4,0.9,0.5h0.2c0.1,0,0.2-0.1,0.2-0.2l0,0c0-0.2,7.6-21.6,17.5-35.8
			c-1.7,4.4-3.1,8.9-4,13.6c-1.4,7.9-0.2,17.5,1.4,24.5c-0.7,3.2-1.9,10.9-0.7,16.8c-4.8,1-9.6,2.3-14.2,4.1c-0.2,0-0.2,0.2-0.2,0.4
			s0,0.2,0.2,0.4c0,0,5,2,4.1,5.7c-0.3,1.4-1.2,2.3-2.2,2.3s-2.6-0.9-3.1-3.6C46.7,141.6,46.7,131.8,48.5,122.3L48.5,122.3z
			 M58,151.6c0.2-1.8-0.7-3.6-2.2-4.5c2.1-0.5,8.6-2.3,11.1-2.7c1.3-0.1,2.5,0.6,2.9,1.8c0.9,1.4,0.9,3.2,0,4.6
			c-1.7,3-11.4,5-14.7,5.7C56.6,155.4,57.7,153.6,58,151.6z M16.7,100.5c0.8-1,2-1.6,3.3-1.6c1.5,0.1,2.9,0.6,4.1,1.4h0.2
			c0.2,0,0.3-0.2,0.3-0.4v-0.2c-0.3-0.5-2.1-3.8-3.8-6.8l17.5-11.6c0.5,0,1-0.2,1.6-0.2c-3.8,3.2-8,6.1-12.4,8.4
			c-0.2,0-0.2,0.2-0.2,0.4c0,0.1,0.1,0.2,0.2,0.2l0,0c3.8,0.7,7.5,1.9,11.1,3.4c-2.6,3.4-8.8,10.4-13.7,12.3
			c-1.6,0.8-3.4,1.2-5.2,1.4c-2.4,0-3.3-1.4-3.8-3C15.6,102.9,16,101.6,16.7,100.5z M27.6,47.9c0-2,0.3-3.9,1-5.7
			c0.7-1.6,2.4-2.6,4.1-2.5c1.5,0,3,0.5,4.1,1.6c0.1,0.1,0.2,0.3,0.2,0.5c-0.7,1.4-1.9,4.8-2.2,5.9c-1-0.7-2.2-1-3.5-1.1
			C30,46.6,28.7,47.1,27.6,47.9z M28.8,52.6c0.2-1.1,1.6-1.8,2.6-2.1h0.5c1.6,0.1,3.1,1,4,2.3c0,0.2,0.2,0.2,0.3,0.2l0,0
			c0.2,0,0.2-0.2,0.3-0.2c0,0,0.3-0.9,0.7-2.1c0.7,0,1.7,0.2,2.9,0.2h1c-0.1,2.5-1,4.9-2.6,6.8h-0.9c-2.4,0.1-4.7-0.5-6.7-1.8
			C29.3,54.7,28.6,53.5,28.8,52.6z M27.6,58.5c0.2,1.6-0.2,5.5-0.2,7.2c-0.5-0.4-1.7-0.9-4.3-0.9c-2.3,0.2-4.4,1.4-5.7,3.4
			c-0.5-2-0.8-4-0.7-6.1c0.2-3,1.6-5,4-5.5c0.6-0.1,1.1-0.2,1.7-0.2C25,56.3,27.6,57,27.6,58.5z M19.6,71c0.5-1.8,2.1-3,4-3
			c2.4,0,4.7,1.2,6,3.2c0,0.2,0.2,0.2,0.3,0.2s0.2-0.2,0.2-0.4c0.1-0.9,0.2-1.9,0.2-2.9c1.2-0.2,4.8-0.5,7.9-1.1
			c0.1,0.9,0.2,1.9,0.2,2.9c0,3.8-0.2,5.7-0.2,5.7v0.2l0.2,0.2c3.2-0.1,6.3-0.9,9.2-2.3c-1.4,1.5-2.8,2.8-4.3,4.1
			c-3.7,0.4-7.5,0.7-11.2,0.7c-5.4,0-8.8-0.7-10.5-2C20,74.9,19.1,72.8,19.6,71L19.6,71z M47.6,61.3c-2.6,0.4-5.2,0.6-7.8,0.7
			c-1,0-2,0-2.9-0.2c-0.2,0-0.3,0-0.3,0.2v0.4c0.4,0.5,0.8,1.1,1,1.8c-1.1,0.2-2.3,0.2-3.5,0.2s-2.4-0.2-3.6-0.4
			c0.1-1.5,0.2-3.1,0.2-4.6c2.3,0.7,4.7,1,7.1,0.9l0,0c1.7,0,3.6-0.2,5.7-0.4c1.3,0.2,2.5,0.2,3.8,0.2c2.6,0,5.1-0.3,7.6-0.9
			C52.6,60.3,50.1,61,47.6,61.3L47.6,61.3z M18.9,96h-0.5c-1.1,0.1-2.2,0.5-3.1,1.1c-2.2,1.4-2.8,4.3-2.9,5.5
			c-0.9-1.1-3.1-3.6-3.8-5.4c-1-2-0.9-4.4,0.3-6.3c1-1.3,2.5-2.1,4.1-2c0.7,0,1.4,0.1,2.1,0.4C15.8,89.9,17.7,93.3,18.9,96z
			 M68.7,141.4h-0.2c-1-2.6-1.6-5.4-1.7-8.2c0.3,0.8,0.5,1.6,0.7,2.5l0.2,0.2H68c1.4-0.7,2.8-1.2,4.3-1.6c0.1,3.2,0.4,6.3,0.9,9.5
			C72.1,142.3,70.5,141.5,68.7,141.4z M130.2,144.3c0.2,0.2,0.2,0.2,0.3,0c0.9-0.5,1.9-0.8,2.9-0.9c0.9,0,1.8,0.5,2.1,1.4
			c0.2,0.6,0.2,1.2,0,1.8c-0.7,1.2-1.8,2.2-3.1,2.9c-0.9-2.1-3-3.5-5.4-3.6c-0.6,0-1.2,0.2-1.7,0.4c-2.2-0.9-8.6-3.9-11.6-9.3
			c2.8-1.1,5.9-2.1,8.3-2.9c0.6,1.2,1.2,2.4,1.9,3.6l0.2,0.2h0.2c0.7-0.4,1.5-0.8,2.2-1.1c2.4,4.1,5,4.8,6.2,4.8l0,0
			c-1.6,1.4-2.6,2.3-2.6,2.3C130.1,143.9,130.1,144.1,130.2,144.3z M139.2,142.3c-0.3-0.6-0.9-1.1-1.6-1.3c1-1.1,2.9-3,3.6-3.2h0.3
			c0.6,0,1.2,0.5,1.4,1.1c0.3,0.5,0.4,1.2,0.2,1.8c-0.5,0.7-2.6,3-3.6,4.3C139.8,144.1,139.7,143.1,139.2,142.3L139.2,142.3z
			 M115,22.4c1.1-1.9,2-4,2.8-6.1c0,0,0.7,7.3,0.9,10.2c0.3,2.9,0.5,5.9,0.5,5.9s-0.7,2.5-2.1,6.1c-1,2.7-2.6,8.8-2.8,9.5l0,0
			c0-0.9-0.7-8.2-1.2-11.8c-0.4-2.7-1.1-5.4-2.1-8C112.7,26.4,114.1,24.5,115,22.4L115,22.4z M101.9,18.8c2.5-2.6,5.2-5,8.1-7.2
			c-0.2,4.5-1.6,16.1-1.6,16.1c-2,1.7-3.8,3.5-5.5,5.4c-2.5,2.6-4.8,5.4-6.7,8.4c0-4.5,0.7-16.4,0.7-16.4S98.8,22.4,101.9,18.8z
			 M98.3,17.5c0,0-2.9,4.5-3.5,6.6c0,0-5.9,3.2-8.3,5.5L98.3,17.5z M157,94.6c-1.4,0.7-2.9,1-4.5,0.9c-1.6-0.2-1.7-1.1-2.2-1.1
			c-0.5,0.2-0.9,2.9,0.2,3.8c1.1,0.9,2.5,1.6,4,1.8c1.4,0.2,2.4,0.2,2.2,1.4s-2.6,4.8-5.9,6.1c-2.9,1.1-5.9,1.5-9,1.3
			c-2.6-2.7-4.5-7.9-5.5-9.8c-1.4-2.5-2.9-6.6-8.1-3.6c-3.6,2.1-2.9,6.6-2.2,9.3c-0.8-0.4-1.6-1-2.2-1.6c-0.5-0.5-2.4,0-2.8,1.1
			s0.7,3.2,1.6,3.4c1.6,0.2,3.3,0.6,4.8,1.1c0.9,0.4,13.1,3,17.1,3c3.8,0,8.1-0.9,9.3-2c1.4-1.1,0.9-0.5,1.4-0.5
			c0.3,0-0.3,1.4-0.3,2.5c0.2,1.1,0.5,2.1-0.3,2s-2.2-0.4-2.4,0.4c-0.2,0.5-0.7,4.1-2.6,3.6c-5.5-1.2-11.1-2.1-16.8-2.7
			c-3.8-0.2-3.8-0.7-4.5-0.9c-0.7-0.2,0.3,3.4,0.9,3.6c1.4,0.6,2.9,1,4.5,1.1c1.2,0,2.3,0.1,3.5,0.2l0.5,1.4
			c-1.8,0.5-3.6,1.2-5.2,2.1c-0.5-0.8-0.8-1.6-1-2.5c0-0.2-0.2-0.2-0.3-0.2h-1.4c-0.2,0-0.2,0-0.2,0.2v0.2c0.7,2.9,1.6,5.9,1.6,5.9
			c0,0.1,0.1,0.2,0.2,0.2l0,0h0.2c0.2,0,0.2-0.2,0.3-0.2c0.5,2,1.2,4,2.1,5.9h-1.9c-1.3,0-2.7,0.1-4,0.4c-1.1,0.3-2.2,0.6-3.3,1.1
			c-0.7-1.1-4.1-6.8-4.8-17.3c0-0.1-0.1-0.2-0.2-0.2l0,0l-0.9-0.7h-0.3c-0.1,0-0.2,0.1-0.2,0.2l0,0c-0.4,5.6,0.5,11.2,2.6,16.4
			c-3.6,0.7-7.2,1.7-10.7,2.9c-0.8-2.7-1.3-5.6-1.6-8.4l3.5-0.9c0.1,0,0.2-0.1,0.2-0.2l0,0v-0.4c-3.5-4.3-3.6-12.5-3.6-15.2
			c0.9,1.1,2.9,3.2,5.9,3c0.8-0.1,1.4-0.7,1.6-1.4c0-0.3-0.1-0.6-0.3-0.9c-0.5-0.2-3.6-2.1-4.3-3.6c-0.3-0.5-0.5-0.9-0.9-0.9
			c-0.3,0-0.5,0.1-0.5,0.4v0.1h-0.2c-0.2-1.2-1.3-2.1-2.6-2c-0.4,0-0.8,0.1-1,0.4c-0.3,0.5-0.4,1.1-0.2,1.6c0.1,0.4,0.1,0.8,0,1.3
			c-0.3,3.8,1.6,12,2.1,13.9c-3.3,0.4-7.3,2.7-8.3,3.2c-2.8-4.1-4.1-10.7-4.8-14.8c0.3,0,0.6-0.1,0.9-0.2c0.1,0,0.2-0.1,0.2-0.2l0,0
			v-0.2c-0.9-2.7-1.3-5.6-1.2-8.4c0.2-3.2,0.8-6.3,1.7-9.3v-0.4L96.2,91H95c-0.2,0-0.2,0-0.3,0.2c0,0-3.3,7.7-2.6,14.3
			c-1.4,0-7.3,0.2-10.9,1.6c-0.7-5.5-0.5-11,0.5-16.4c1.2-5.9,2.8-11.7,4.8-17.3V73l-0.3-0.7c-0.1-0.1-0.2-0.2-0.3-0.2
			c-0.2,0-0.2,0-0.2,0.2s-5.9,13.4-7.4,23.1c-0.9,6.2-1,12.5-0.2,18.8c0,0.2,0,0.2,0.2,0.2h0.3c0.2-0.2,0.4-0.3,0.7-0.4
			c0.4,4.7,1,9.4,1.9,14.1h-0.9c-1.7,0-3.4,0.2-5,0.5c-1.8,0.3-3.6,0.8-5.4,1.4c-0.9-2.5-6-18.4-3.8-30.7
			c2.8-13.4,11.4-29.7,11.4-29.9V69l-1-1.1l-0.2-0.2c-0.2,0-0.2,0-0.2,0.2s-2.9,5-5.9,11.8c-4.6,5-8.8,10.4-12.6,16.1
			c-6.7,10.4-9.5,18.1-10,19.7c-2.5-1-5-1.8-7.6-2.3c-3.1-0.5-4.5-0.9-5.2-0.9c1.4-6,3.8-11.6,7.1-16.8c0.5,0.4,1.2,0.9,1.7,1.3H44
			c0.2,0,3.8-2.3,10.4-11.8l0.9-1.4C61.2,75,63.9,70.9,74,65.9l0.2-0.2v-0.2l-0.7-0.7c-0.1-0.1-0.2-0.1-0.3,0l0,0
			c-0.2,0-10.4,3.9-19.7,16.6c-5.9,8-9,9.7-9.7,9.8c-2.6-1.3-5.4-2.2-8.3-2.7c5.8-3.9,10.9-8.6,15.4-13.9c8-9.3,20.6-14.3,20.7-14.5
			c0.1,0,0.2-0.1,0.2-0.2l0,0v-0.2l-0.3-1.1l-0.2-0.2H71c-5.4,2.7-10.7,5.7-15.7,9.1c-4,2.2-8.2,3.8-12.6,4.8
			c0.2-1.4,0.5-5.5-0.9-8.2c5.1-0.5,10-1.8,14.7-3.8c2.8-1.2,5.4-2.6,8-4.3c1.9-0.9,3.8-2,5.5-3.2c0.2,0,0.2-0.2,0.2-0.4L70,51.7
			c0-0.1-0.1-0.2-0.2-0.2l0,0h-0.2c-0.2,0-8.8,4.8-17.3,5.7c-1.4,0.2-2.9,0.3-4.3,0.4c-3.5,0-4.5-0.7-4.8-1.1c0.8-1.5,1.2-3.2,1-4.8
			c0.7,0,2.2,0.2,4.3,0.2l0,0c3.6,0.1,7.2-0.3,10.7-1.3c6.7-1.8,10-3.9,10.2-4.1l0,0v-0.2l0,0l0.3-1.3v-0.4l-0.2-0.2H68
			c-2.8,0-8-0.5-11.8-4.3c0.7-0.5,2.6-2.3,2.6-6.3c3,2,6.3,3.5,9.9,4.3c2.5,0.4,5.1,0.6,7.6,0.5h2.6l-0.5,1.1
			c-1.2,3.2-0.7,12.5,0.9,14.7s5.5,6.6,6,6.4c0.7-0.4,2.6-2.5,1.4-2.7c-1-0.2-3.8-5.4-5.2-9.3c-0.3-2.1-0.3-2.9,0.2-4.3
			c1-2.7,4.3-4.8,4.3-5.2c0-0.2-3.8,0.7-4.8,2.1c0.5-2,0.7-3,1.2-3.4c1-0.9,6.7-0.5,8.5,0.5c1.9,1.1,5,7.7,5.4,8.9
			c0.2,1.3,0.2,2,0.7,2s3.3-0.5,2.8-1.6c0-0.1-0.1-0.2-0.2-0.2l0,0c8.8-0.7,17.1,4.6,19.5,7.2c2.9,3,8.8,9.8,14.5,15.6
			c6.5,6.2,13.4,12.1,20.6,17.5c1.9,1.1,4.1,3,4.5,4.3C158.8,93.5,158.4,93.9,157,94.6L157,94.6z M135.3,106.4
			c-0.3-0.4-2.1,0.2-2.2-0.2c0-0.4,1.4-1.3,1-1.6s-2.1,0.4-2.2,0c0-0.4,2.6-1.8,2.4-2.1s-2.8,0.5-2.8,0.4s2.8-1.8,2.4-2.1
			s-2.9,0.7-3.1,0.4c0.8-0.9,1.8-1.5,2.9-2c0.2,0.4,2.8,7,4.3,8.9c-1-0.2-1.9-0.4-3.1-0.5c-0.3,0-0.6-0.1-0.9-0.2
			C134.7,107.1,135.4,106.6,135.3,106.4L135.3,106.4z"/>
		<path id="Path_417" d="M86.9,46.7c0-2.6,0.5-3.5,0-3.8c-0.5-0.5-4.8,4-4.3,6.9c0.7,2.9,5.4,6,6.9,6.9s1.2,0.3,0.7-0.7
			C89.8,55,86.9,49.3,86.9,46.7z"/>
	</g>
</g>
</svg>
